<svg width="1600" height="900" viewBox="0 0 1600 900" fill="none" xmlns="http://www.w3.org/2000/svg">
  <rect width="1600" height="900" fill="#090A0D"/>
  <rect x="120" y="120" width="1360" height="660" rx="36" fill="url(#bg)" stroke="#2A2C34"/>

  <rect x="190" y="180" width="1220" height="120" rx="20" fill="#13151D"/>
  <rect x="210" y="205" width="260" height="30" rx="10" fill="#262A36"/>
  <rect x="210" y="248" width="460" height="16" rx="8" fill="#2F3340"/>

  <rect x="190" y="340" width="390" height="370" rx="20" fill="#13151D"/>
  <rect x="610" y="340" width="390" height="370" rx="20" fill="#13151D"/>
  <rect x="1030" y="340" width="380" height="370" rx="20" fill="#13151D"/>

  <path d="M230 620C280 520 330 560 380 500C430 440 480 470 540 420" stroke="#34D399" stroke-width="7" stroke-linecap="round"/>
  <path d="M650 620C700 500 760 530 810 450C860 380 920 430 960 360" stroke="#60A5FA" stroke-width="7" stroke-linecap="round"/>
  <path d="M1070 620C1120 560 1170 510 1220 470C1270 430 1320 390 1370 340" stroke="#FBBF24" stroke-width="7" stroke-linecap="round"/>

  <defs>
    <linearGradient id="bg" x1="120" y1="120" x2="1480" y2="780" gradientUnits="userSpaceOnUse">
      <stop stop-color="#12141C"/>
      <stop offset="1" stop-color="#0B0D13"/>
    </linearGradient>
  </defs>
</svg>
