<svg width="1600" height="900" viewBox="0 0 1600 900" fill="none" xmlns="http://www.w3.org/2000/svg">
  <rect width="1600" height="900" fill="#090A0C"/>
  <rect x="120" y="120" width="1360" height="660" rx="36" fill="url(#surface)" stroke="#2A2B31"/>

  <rect x="190" y="190" width="520" height="520" rx="24" fill="#13161D"/>
  <rect x="225" y="225" width="450" height="120" rx="16" fill="#1B1F29"/>
  <rect x="225" y="365" width="210" height="150" rx="16" fill="#1B1F29"/>
  <rect x="465" y="365" width="210" height="150" rx="16" fill="#1B1F29"/>
  <rect x="225" y="535" width="450" height="140" rx="16" fill="#1B1F29"/>

  <rect x="760" y="190" width="620" height="520" rx="24" fill="#13161D"/>
  <path d="M800 640L980 470L1080 560L1290 330" stroke="#F59E0B" stroke-width="8" stroke-linecap="round" stroke-linejoin="round"/>
  <circle cx="980" cy="470" r="10" fill="#F59E0B"/>
  <circle cx="1080" cy="560" r="10" fill="#F59E0B"/>
  <circle cx="1290" cy="330" r="10" fill="#F59E0B"/>

  <defs>
    <linearGradient id="surface" x1="120" y1="120" x2="1480" y2="780" gradientUnits="userSpaceOnUse">
      <stop stop-color="#11141A"/>
      <stop offset="1" stop-color="#0B0D12"/>
    </linearGradient>
  </defs>
</svg>
